<svg id="eksisozluk" xmlns="http://www.w3.org/2000/svg" viewBox="0 0 251.63 41.88"><defs><style>.cls-1{fill:#81c14b;}.cls-2{fill:#fdfdfe;}</style></defs><title>eksisozluk_logo_darktheme</title><g id="eksisozluk-2" data-name="eksisozluk"><g id="greendrop"><path class="cls-1" d="M2082.82,1831.59a13,13,0,0,1-12.93-12.93c0-7.05,13-23.26,13-23.26s13,16.21,13,23.26A12.89,12.89,0,0,1,2082.82,1831.59Z" transform="translate(-2069.89 -1793.1)"/></g><g id="type"><path class="cls-2" d="M2113,1818.5v0.19c0,3.79,1.87,6,5.18,6a9.61,9.61,0,0,0,6.24-2.45l2.5,3.84a14.1,14.1,0,0,1-9.26,3.41c-7.06,0-11.62-5-11.62-12.72,0-4.42.91-7.34,3.07-9.75a9.66,9.66,0,0,1,7.73-3.31,10.05,10.05,0,0,1,7.1,2.59c2.26,2.3,3.26,5.62,3.26,10.75v1.49H2113Zm7.54-5a6.33,6.33,0,0,0-.77-3.7,3.11,3.11,0,0,0-2.83-1.44c-2.45,0-3.84,1.92-3.84,5.33v0.1h7.44v-0.29Z" transform="translate(-2069.89 -1793.1)"/><path class="cls-2" d="M2131.69,1828.77v-27.7c0-1.11,0-2.09-.08-3.13s-0.17-2-.35-3.26l6.48-1.58a31.39,31.39,0,0,1,.29,3.27c0.07,1.4.09,3,.09,4.7v27.7h-6.43Zm14.83,0-8.26-13.92,6.29-10.66h7.73l-7.82,10.27,9.65,14.31h-7.58Z" transform="translate(-2069.89 -1793.1)"/><path class="cls-2" d="M2164.42,1829.54a21.85,21.85,0,0,1-9.94-2.83l2.3-4.7c2,1.2,5.38,2.78,8.16,2.78a3,3,0,0,0,3.26-2.78c0-1.68-1.2-2.54-3.79-3l-2.88-.53a8.67,8.67,0,0,1-4.51-2.5,7.44,7.44,0,0,1-1.39-4.42c0-4.8,3.79-8,9.5-8a18.47,18.47,0,0,1,8.78,2.3l-2.11,4.32a13,13,0,0,0-6-1.78c-1.87,0-3.12,1-3.12,2.4,0,1.25.82,1.92,3.07,2.5l3,0.77c3,0.77,4,1.68,4.9,2.78a6.5,6.5,0,0,1,1.34,4.18C2174.93,1826.08,2170.71,1829.54,2164.42,1829.54Z" transform="translate(-2069.89 -1793.1)"/><path class="cls-2" d="M2179.31,1828.77v-24.15l6.43-1v25.15h-6.43Z" transform="translate(-2069.89 -1793.1)"/><path class="cls-1" d="M2199.68,1829.54a21.85,21.85,0,0,1-9.94-2.83l2.3-4.7c2,1.2,5.38,2.78,8.16,2.78a3,3,0,0,0,3.26-2.78c0-1.68-1.2-2.54-3.79-3l-2.88-.53a8.67,8.67,0,0,1-4.51-2.5,7.44,7.44,0,0,1-1.39-4.42c0-4.8,3.79-8,9.5-8a18.47,18.47,0,0,1,8.78,2.3l-2.11,4.32a13,13,0,0,0-6-1.78c-1.87,0-3.12,1-3.12,2.4,0,1.25.82,1.92,3.07,2.5l3,0.77c3,0.77,4,1.68,4.9,2.78a6.5,6.5,0,0,1,1.34,4.18C2210.19,1826.08,2206,1829.54,2199.68,1829.54Z" transform="translate(-2069.89 -1793.1)"/><path class="cls-1" d="M2232.35,1825.89a10,10,0,0,1-8.11,3.41c-6.67,0-11-5-11-12.72s4.42-12.87,11-12.87a10.3,10.3,0,0,1,8.35,3.7c2,2.3,2.83,5,2.83,9C2235.42,1820.61,2234.46,1823.49,2232.35,1825.89ZM2219.2,1802a3.72,3.72,0,0,1-3.65-3.7,3.77,3.77,0,0,1,3.74-3.7,3.68,3.68,0,0,1,3.6,3.7A3.73,3.73,0,0,1,2219.2,1802Zm7.92,7.78a3.52,3.52,0,0,0-6.1,1.2,23.29,23.29,0,0,0,.14,11.67,3.56,3.56,0,0,0,3.26,2c2.78,0,4-2.5,4-8.3C2228.42,1813,2228,1810.86,2227.12,1809.76Zm2.21-7.78a3.72,3.72,0,0,1-3.65-3.7,3.77,3.77,0,0,1,3.74-3.7,3.68,3.68,0,0,1,3.6,3.7A3.73,3.73,0,0,1,2229.33,1802Z" transform="translate(-2069.89 -1793.1)"/><path class="cls-1" d="M2256,1828.77h-18.1v-4l11.57-16.08h-10.61v-4.51h18.24v4.42l-10.85,15.7h11.28Z" transform="translate(-2069.89 -1793.1)"/><path class="cls-1" d="M2268.65,1829.35c-2.74,0-4.94-1.3-5.71-3.36-0.48-1.25-.58-2-0.58-5.52v-18.34a63.29,63.29,0,0,0-.34-7.39l6.58-1.49a36.57,36.57,0,0,1,.34,6.38v19.15c0,4.22,0,4.8.43,5.47a1.47,1.47,0,0,0,1.3.67,2.13,2.13,0,0,0,.72-0.1l1.1,3.84A10.74,10.74,0,0,1,2268.65,1829.35Z" transform="translate(-2069.89 -1793.1)"/><path class="cls-1" d="M2290.75,1829.44a5.63,5.63,0,0,1-1.92-2.4,9.18,9.18,0,0,1-6.48,2.35c-3.46,0-6.43-1.63-7.25-4a14.7,14.7,0,0,1-.53-4.9v-15.75l6.34-1.2v15.79a9.69,9.69,0,0,0,.53,4,2.58,2.58,0,0,0,2.26,1.15,4.76,4.76,0,0,0,4-2.35v-17.28l6.14-1.3v18.77a7.14,7.14,0,0,0,1.49,4.46ZM2279,1802a3.72,3.72,0,0,1-3.65-3.7,3.77,3.77,0,0,1,3.74-3.7,3.68,3.68,0,0,1,3.6,3.7A3.73,3.73,0,0,1,2279,1802Zm10.37,0a3.72,3.72,0,0,1-3.65-3.7,3.77,3.77,0,0,1,3.74-3.7,3.68,3.68,0,0,1,3.6,3.7A3.73,3.73,0,0,1,2289.36,1802Z" transform="translate(-2069.89 -1793.1)"/><path class="cls-1" d="M2299.1,1828.77v-27.7a38.21,38.21,0,0,0-.43-6.38l6.48-1.58a58.42,58.42,0,0,1,.38,8v27.7h-6.43Zm14.83,0-8.26-13.92,6.29-10.66h7.73l-7.82,10.27,9.65,14.31h-7.58Z" transform="translate(-2069.89 -1793.1)"/></g><path id="dot" class="cls-2" d="M2182.52,1801.41a4,4,0,0,1-3.94-4,4,4,0,0,1,4-4,3.92,3.92,0,0,1,3.89,4A4,4,0,0,1,2182.52,1801.41Z" transform="translate(-2069.89 -1793.1)"/><path id="diacritic" class="cls-2" d="M2162.4,1835l-0.52-2.51,7.41-1.82,0.74,3.53Z" transform="translate(-2069.89 -1793.1)"/></g></svg>